<?xml version="1.0" encoding="utf-8"?>
<!-- Generator: Adobe Illustrator 22.0.1, SVG Export Plug-In . SVG Version: 6.00 Build 0)  -->
<svg version="1.1" id="Layer_1" xmlns="http://www.w3.org/2000/svg" xmlns:xlink="http://www.w3.org/1999/xlink" x="0px" y="0px"
	 viewBox="0 0 237.2 52.8" style="enable-background:new 0 0 237.2 52.8;" xml:space="preserve">
<style type="text/css">
	.st0{fill:#FFFFFF;}
</style>
<g>
	<g>
		<g>
			<g>
				<path class="st0" d="M56.2,9.1L56.2,9.1c-0.4-0.3-0.8-0.6-1.3-0.9c-2.6-1.9-5.4-3.4-8.4-4.7C41.1,1.2,35.3,0,29.3,0
					c-6,0-11.8,1.2-17.2,3.5C8.6,4.9,5.4,6.8,2.4,9.1c-0.8,0.6-1.6,1.3-2.4,2l3.1,3.5c1.1-1,2.2-1.9,3.4-2.7l0.6-2.3c0,0,0,0,0,0
					c6.6-4.2,14.2-6.5,22.2-6.5c8.5,0,16.7,2.6,23.5,7.4l-2.7,3C44,9.4,36.8,7.1,29.3,7.1c-7.9,0-15.5,2.5-21.8,7.1
					c-1,0.7-1.9,1.4-2.8,2.2L8,17.7l4.3,1.8l3.5,1.5c1.2-0.7,2.5-1.3,3.8-1.8c0.8-0.3,1.6-0.6,2.4-0.8l2,21.2l0.3,3.1h3.1h3.8h3.1
					l0.3-3.1l2-21.2c0.8,0.2,1.6,0.5,2.4,0.8c1.3,0.5,2.6,1.1,3.8,1.8l3.5-1.5c-1.1-0.7-2.2-1.4-3.3-2c-1.9-1-4-1.8-6.1-2.3
					c-1-0.3-2-0.5-3.1-0.6l-0.3,3.1l-2,21.9h-4.4l-2-21.9l-0.3-3.1c-1,0.2-2.1,0.4-3.1,0.6c-2.1,0.5-4.2,1.3-6.1,2.3l-4.7-1.9
					c5.4-3.5,11.7-5.4,18.3-5.4c6.6,0,12.9,1.9,18.3,5.4c0.1,0.1,0.3,0.2,0.4,0.3c0.9,0.6,1.7,1.2,2.5,1.9l2.1-2.3l2.6-3l2.1-2.4
					C57,9.7,56.6,9.4,56.2,9.1z"/>
			</g>
			<g>
				<polygon class="st0" points="67.9,16.5 73.6,16.5 73.6,33.1 77.7,33.1 77.7,16.5 83.4,16.5 83.4,12.6 67.9,12.6 				"/>
				<polygon class="st0" points="86.1,33.1 100.7,33.1 100.7,29.3 90.2,29.3 90.2,24.6 100.2,24.6 100.2,20.8 90.2,20.8 90.2,16.4 
					100.7,16.4 100.7,12.6 86.1,12.6 				"/>
				<path class="st0" d="M113.8,16.1c1.4,0,2.6,0.4,3.6,1.1c1,0.7,1.6,1.7,1.9,3l0.1,0.3h4.3l-0.1-0.4c-0.4-2.4-1.5-4.4-3.3-5.8
					c-1.8-1.4-4-2.1-6.5-2.1c-3,0-5.5,1-7.4,3c-1.9,2-2.9,4.6-2.9,7.7c0,3.1,1,5.7,2.9,7.7c1.9,2,4.4,3,7.4,3c2.5,0,4.7-0.7,6.5-2.1
					c1.8-1.4,2.9-3.4,3.3-5.8l0.1-0.4h-4.3l-0.1,0.3c-0.3,1.3-1,2.3-1.9,3c-1,0.7-2.2,1.1-3.6,1.1c-1.9,0-3.3-0.6-4.4-1.8
					c-1.1-1.2-1.6-2.9-1.6-4.9c0-2.1,0.5-3.7,1.6-4.9C110.5,16.7,111.9,16.1,113.8,16.1z"/>
				<polygon class="st0" points="124.9,16.5 130.7,16.5 130.7,33.1 134.8,33.1 134.8,16.5 140.5,16.5 140.5,12.6 124.9,12.6 				"/>
				<path class="st0" d="M152.2,12.2c-3.1,0-5.6,1-7.6,3c-2,2-3,4.6-3,7.6c0,3,1,5.6,3,7.6c2,2,4.5,3,7.6,3c3.1,0,5.6-1,7.6-3
					c2-2,3-4.6,3-7.6c0-3-1-5.6-3-7.6C157.9,13.2,155.3,12.2,152.2,12.2z M156.8,27.7c-1.2,1.2-2.7,1.8-4.5,1.8
					c-1.9,0-3.3-0.6-4.5-1.8c-1.2-1.2-1.8-2.9-1.8-4.9c0-2,0.6-3.7,1.8-4.9c1.2-1.2,2.7-1.8,4.5-1.8c1.9,0,3.3,0.6,4.5,1.8
					c1.2,1.2,1.8,2.9,1.8,4.9C158.5,24.9,157.9,26.5,156.8,27.7z"/>
				<polygon class="st0" points="179.7,26.1 170.6,12.6 166.6,12.6 166.6,33.1 170.7,33.1 170.7,19.7 179.7,33.1 183.7,33.1 
					183.7,12.6 179.7,12.6 				"/>
				<rect x="188.6" y="12.6" class="st0" width="4.1" height="20.5"/>
				<path class="st0" d="M206.9,16.1c1.4,0,2.6,0.4,3.6,1.1c1,0.7,1.6,1.7,1.9,3l0.1,0.3h4.3l-0.1-0.4c-0.4-2.4-1.5-4.4-3.3-5.8
					c-1.8-1.4-4-2.1-6.5-2.1c-3,0-5.5,1-7.4,3c-1.9,2-2.9,4.6-2.9,7.7c0,3.1,1,5.7,2.9,7.7c1.9,2,4.4,3,7.4,3c2.5,0,4.7-0.7,6.5-2.1
					c1.8-1.4,2.9-3.4,3.3-5.8l0.1-0.4h-4.3l-0.1,0.3c-0.3,1.3-1,2.3-1.9,3c-1,0.7-2.2,1.1-3.6,1.1c-1.9,0-3.3-0.6-4.4-1.8
					c-1.1-1.2-1.6-2.9-1.6-4.9c0-2.1,0.5-3.7,1.6-4.9C203.5,16.7,205,16.1,206.9,16.1z"/>
				<path class="st0" d="M229.3,12.6h-4.1l-7.9,20.5h4.3l1.4-3.8h8.3l1.4,3.8h4.5L229.3,12.6z M229.9,25.5h-5.5l2.8-7.4L229.9,25.5z
					"/>
			</g>
		</g>
	</g>
	<g>
		<path class="st0" d="M104.5,50.5H102v-7.2h2.4c1.2,0,2.2,0.3,2.8,1c0.7,0.7,1,1.5,1,2.6c0,1.1-0.3,2-1,2.6
			C106.7,50.2,105.7,50.5,104.5,50.5z M106.4,48.8c0.4-0.4,0.7-1,0.7-1.8c0-0.8-0.2-1.4-0.7-1.8c-0.4-0.4-1.1-0.7-2-0.7h-1.2v4.9
			h1.2C105.3,49.4,106,49.2,106.4,48.8z"/>
		<path class="st0" d="M110.3,44.4c-0.2,0-0.4-0.1-0.5-0.2c-0.1-0.1-0.2-0.3-0.2-0.5c0-0.2,0.1-0.4,0.2-0.5c0.1-0.1,0.3-0.2,0.5-0.2
			c0.2,0,0.4,0.1,0.5,0.2c0.1,0.1,0.2,0.3,0.2,0.5c0,0.2-0.1,0.4-0.2,0.5C110.7,44.3,110.5,44.4,110.3,44.4z M109.7,50.5v-5.3h1.2
			v5.3H109.7z"/>
		<path class="st0" d="M116.3,46v-0.8h1.1v5c0,0.7-0.2,1.3-0.7,1.8c-0.4,0.5-1.1,0.7-1.9,0.7c-0.7,0-1.3-0.2-1.7-0.6
			c-0.4-0.4-0.6-0.8-0.7-1.3h1.2c0.1,0.5,0.6,0.8,1.2,0.8c0.4,0,0.7-0.1,0.9-0.3c0.2-0.2,0.3-0.5,0.3-0.9v-0.8
			c-0.4,0.5-0.9,0.8-1.7,0.8c-0.7,0-1.3-0.3-1.8-0.8c-0.4-0.5-0.7-1.1-0.7-1.9c0-0.8,0.2-1.4,0.7-1.9c0.4-0.5,1-0.8,1.8-0.8
			C115.3,45.2,115.9,45.4,116.3,46z M116.2,47.8c0-0.5-0.1-0.8-0.4-1.1s-0.6-0.4-1.1-0.4c-0.4,0-0.8,0.1-1.1,0.4
			c-0.3,0.3-0.4,0.7-0.4,1.1c0,0.5,0.1,0.8,0.4,1.1c0.3,0.3,0.6,0.5,1.1,0.5c0.4,0,0.8-0.2,1.1-0.5S116.2,48.3,116.2,47.8z"/>
		<path class="st0" d="M119.5,44.4c-0.2,0-0.4-0.1-0.5-0.2c-0.1-0.1-0.2-0.3-0.2-0.5c0-0.2,0.1-0.4,0.2-0.5c0.1-0.1,0.3-0.2,0.5-0.2
			c0.2,0,0.4,0.1,0.5,0.2c0.1,0.1,0.2,0.3,0.2,0.5c0,0.2-0.1,0.4-0.2,0.5C119.9,44.3,119.7,44.4,119.5,44.4z M118.9,50.5v-5.3h1.2
			v5.3H118.9z"/>
		<path class="st0" d="M123.1,46.2v4.3h-1.2v-4.3h-0.8v-1h0.8v-1.4h1.2v1.4h0.9v1H123.1z"/>
		<path class="st0" d="M128.7,45.3h1.1v5.3h-1.1v-0.8c-0.4,0.6-1,0.9-1.8,0.9c-0.8,0-1.3-0.3-1.8-0.8c-0.4-0.5-0.7-1.2-0.7-2
			c0-0.8,0.2-1.4,0.7-2c0.4-0.5,1-0.8,1.8-0.8c0.8,0,1.4,0.3,1.8,0.9V45.3z M126.1,46.7c-0.3,0.3-0.4,0.7-0.4,1.2
			c0,0.5,0.1,0.9,0.4,1.2c0.3,0.3,0.6,0.5,1.1,0.5c0.5,0,0.8-0.2,1.1-0.5c0.3-0.3,0.4-0.7,0.4-1.2c0-0.5-0.1-0.9-0.4-1.2
			c-0.3-0.3-0.6-0.5-1.1-0.5C126.8,46.2,126.4,46.4,126.1,46.7z"/>
		<path class="st0" d="M132.6,50.5h-1.2v-7.6h1.2V50.5z"/>
		<path class="st0" d="M136.7,46.9c0-1.1,0.3-2,1-2.7c0.7-0.7,1.5-1,2.6-1c0.9,0,1.7,0.3,2.3,0.8c0.6,0.5,1,1.2,1.2,2h-1.3
			c-0.1-0.5-0.4-0.9-0.8-1.2c-0.4-0.3-0.8-0.4-1.4-0.4c-0.7,0-1.3,0.2-1.7,0.7c-0.4,0.5-0.6,1.1-0.6,1.9c0,0.8,0.2,1.4,0.6,1.9
			c0.4,0.5,1,0.7,1.7,0.7c0.5,0,1-0.1,1.4-0.4c0.4-0.3,0.6-0.7,0.8-1.2h1.3c-0.1,0.9-0.5,1.5-1.2,2c-0.6,0.5-1.4,0.8-2.3,0.8
			c-1.1,0-1.9-0.3-2.6-1C137.1,48.9,136.7,48,136.7,46.9z"/>
		<path class="st0" d="M148.9,45.3h1.1v5.3h-1.1v-0.8c-0.4,0.6-1,0.9-1.8,0.9c-0.8,0-1.3-0.3-1.8-0.8c-0.4-0.5-0.7-1.2-0.7-2
			c0-0.8,0.2-1.4,0.7-2c0.4-0.5,1-0.8,1.8-0.8c0.8,0,1.4,0.3,1.8,0.9V45.3z M146.3,46.7c-0.3,0.3-0.4,0.7-0.4,1.2
			c0,0.5,0.1,0.9,0.4,1.2c0.3,0.3,0.6,0.5,1.1,0.5c0.5,0,0.8-0.2,1.1-0.5c0.3-0.3,0.4-0.7,0.4-1.2c0-0.5-0.1-0.9-0.4-1.2
			c-0.3-0.3-0.6-0.5-1.1-0.5C147,46.2,146.6,46.4,146.3,46.7z"/>
		<path class="st0" d="M156.2,47.5v3H155v-3.2c0-0.8-0.3-1.2-1-1.2c-0.4,0-0.6,0.1-0.9,0.3c-0.2,0.2-0.3,0.5-0.3,0.9v3.1h-1.2v-5.3
			h1.1V46c0.1-0.2,0.3-0.4,0.6-0.6c0.3-0.2,0.6-0.2,1-0.2c0.7,0,1.3,0.3,1.6,0.8c0.4-0.6,1-0.8,1.8-0.8c0.6,0,1.1,0.2,1.4,0.6
			c0.3,0.4,0.5,0.9,0.5,1.5v3.3h-1.2v-3.2c0-0.8-0.3-1.2-1-1.2c-0.4,0-0.7,0.1-0.9,0.4C156.3,46.8,156.2,47.1,156.2,47.5z"/>
		<path class="st0" d="M162.3,49.9v2.8h-1.2v-7.4h1.1V46c0.4-0.6,1-0.9,1.8-0.9c0.8,0,1.4,0.3,1.8,0.8c0.4,0.5,0.7,1.2,0.7,2
			c0,0.8-0.2,1.4-0.7,2c-0.4,0.5-1,0.8-1.8,0.8C163.2,50.7,162.6,50.4,162.3,49.9z M162.2,47.9c0,0.5,0.1,0.9,0.4,1.2
			c0.3,0.3,0.6,0.5,1.1,0.5c0.4,0,0.8-0.2,1.1-0.5c0.3-0.3,0.4-0.7,0.4-1.2c0-0.5-0.1-0.9-0.4-1.2c-0.3-0.3-0.6-0.5-1.1-0.5
			c-0.5,0-0.8,0.2-1.1,0.5C162.4,47,162.2,47.4,162.2,47.9z"/>
		<path class="st0" d="M171.6,45.3h1.1v5.3h-1.1v-0.8c-0.4,0.6-1,0.9-1.8,0.9c-0.8,0-1.3-0.3-1.8-0.8c-0.4-0.5-0.7-1.2-0.7-2
			c0-0.8,0.2-1.4,0.7-2c0.4-0.5,1-0.8,1.8-0.8c0.8,0,1.4,0.3,1.8,0.9V45.3z M169,46.7c-0.3,0.3-0.4,0.7-0.4,1.2
			c0,0.5,0.1,0.9,0.4,1.2c0.3,0.3,0.6,0.5,1.1,0.5c0.5,0,0.8-0.2,1.1-0.5c0.3-0.3,0.4-0.7,0.4-1.2c0-0.5-0.1-0.9-0.4-1.2
			c-0.3-0.3-0.6-0.5-1.1-0.5C169.6,46.2,169.2,46.4,169,46.7z"/>
		<path class="st0" d="M174.8,44.4c-0.2,0-0.4-0.1-0.5-0.2c-0.1-0.1-0.2-0.3-0.2-0.5c0-0.2,0.1-0.4,0.2-0.5c0.1-0.1,0.3-0.2,0.5-0.2
			c0.2,0,0.4,0.1,0.5,0.2c0.1,0.1,0.2,0.3,0.2,0.5c0,0.2-0.1,0.4-0.2,0.5C175.2,44.3,175,44.4,174.8,44.4z M174.2,50.5v-5.3h1.2v5.3
			H174.2z"/>
		<path class="st0" d="M180.8,46v-0.8h1.1v5c0,0.7-0.2,1.3-0.7,1.8c-0.4,0.5-1.1,0.7-1.9,0.7c-0.7,0-1.3-0.2-1.7-0.6
			s-0.6-0.8-0.7-1.3h1.2c0.1,0.5,0.6,0.8,1.2,0.8c0.4,0,0.7-0.1,0.9-0.3c0.2-0.2,0.3-0.5,0.3-0.9v-0.8c-0.4,0.5-0.9,0.8-1.7,0.8
			c-0.7,0-1.3-0.3-1.8-0.8c-0.4-0.5-0.7-1.1-0.7-1.9c0-0.8,0.2-1.4,0.7-1.9c0.4-0.5,1-0.8,1.8-0.8C179.8,45.2,180.4,45.4,180.8,46z
			 M180.8,47.8c0-0.5-0.1-0.8-0.4-1.1c-0.3-0.3-0.6-0.4-1.1-0.4c-0.4,0-0.8,0.1-1.1,0.4s-0.4,0.7-0.4,1.1c0,0.5,0.1,0.8,0.4,1.1
			s0.6,0.5,1.1,0.5c0.4,0,0.8-0.2,1.1-0.5C180.6,48.7,180.8,48.3,180.8,47.8z"/>
		<path class="st0" d="M184.5,45.3V46c0.1-0.2,0.3-0.4,0.6-0.6c0.3-0.2,0.6-0.2,1-0.2c0.6,0,1.1,0.2,1.4,0.6
			c0.3,0.4,0.5,0.9,0.5,1.5v3.3h-1.2v-3.2c0-0.4-0.1-0.7-0.3-0.9s-0.4-0.3-0.8-0.3c-0.4,0-0.7,0.1-0.9,0.3c-0.2,0.2-0.3,0.5-0.3,1
			v3.1h-1.2v-5.3H184.5z"/>
		<path class="st0" d="M194.9,49.6c0.5,0,0.9-0.1,1.1-0.3c0.3-0.2,0.4-0.4,0.4-0.7c0-0.2-0.1-0.4-0.2-0.6c-0.1-0.1-0.3-0.3-0.6-0.3
			c-0.2-0.1-0.5-0.1-0.8-0.2c-0.3-0.1-0.6-0.2-0.9-0.2c-0.3-0.1-0.6-0.2-0.8-0.3c-0.2-0.1-0.4-0.3-0.6-0.6c-0.1-0.3-0.2-0.6-0.2-1
			c0-0.6,0.2-1.1,0.7-1.5c0.5-0.4,1.1-0.6,1.9-0.6c0.8,0,1.5,0.2,1.9,0.7c0.5,0.4,0.7,1,0.7,1.7h-1.2c0-0.4-0.1-0.7-0.4-0.9
			c-0.2-0.2-0.6-0.4-1-0.4c-0.4,0-0.8,0.1-1,0.3c-0.2,0.2-0.4,0.4-0.4,0.7c0,0.2,0.1,0.4,0.2,0.5c0.2,0.1,0.3,0.2,0.6,0.3
			c0.2,0.1,0.5,0.1,0.8,0.2c0.3,0.1,0.6,0.2,0.9,0.2c0.3,0.1,0.6,0.2,0.8,0.3c0.2,0.1,0.4,0.4,0.6,0.6c0.1,0.3,0.2,0.6,0.2,1
			c0,0.7-0.3,1.2-0.8,1.6c-0.5,0.4-1.2,0.6-2.1,0.6c-0.9,0-1.6-0.2-2-0.7c-0.4-0.5-0.7-1-0.7-1.7h1.2c0,0.4,0.2,0.7,0.4,0.9
			C194.1,49.5,194.5,49.6,194.9,49.6z"/>
		<path class="st0" d="M201.5,50.7c-0.8,0-1.5-0.3-2-0.8c-0.5-0.5-0.8-1.2-0.8-1.9c0-0.8,0.3-1.4,0.8-2c0.5-0.5,1.2-0.8,2-0.8
			c0.8,0,1.5,0.3,2,0.8c0.5,0.5,0.8,1.2,0.8,2c0,0.8-0.3,1.4-0.8,1.9C203,50.4,202.3,50.7,201.5,50.7z M200,47.9
			c0,0.5,0.1,0.9,0.4,1.2c0.3,0.3,0.7,0.5,1.1,0.5c0.4,0,0.8-0.2,1.1-0.5c0.3-0.3,0.4-0.7,0.4-1.2c0-0.5-0.1-0.9-0.4-1.2
			c-0.3-0.3-0.7-0.5-1.1-0.5c-0.4,0-0.8,0.2-1.1,0.5C200.1,47,200,47.4,200,47.9z"/>
		<path class="st0" d="M206.7,50.5h-1.2v-7.6h1.2V50.5z"/>
		<path class="st0" d="M210.5,49.6c0.7,0,1.1-0.4,1.1-1.2v-3.1h1.2v3c0,0.7-0.2,1.3-0.6,1.7c-0.4,0.4-1,0.6-1.8,0.6
			c-0.8,0-1.4-0.2-1.8-0.6c-0.4-0.4-0.6-1-0.6-1.7v-3h1.2v3.1C209.4,49.2,209.8,49.6,210.5,49.6z"/>
		<path class="st0" d="M215.8,46.2v4.3h-1.2v-4.3h-0.8v-1h0.8v-1.4h1.2v1.4h0.9v1H215.8z"/>
		<path class="st0" d="M218.2,44.4c-0.2,0-0.4-0.1-0.5-0.2c-0.1-0.1-0.2-0.3-0.2-0.5c0-0.2,0.1-0.4,0.2-0.5c0.1-0.1,0.3-0.2,0.5-0.2
			c0.2,0,0.4,0.1,0.5,0.2c0.1,0.1,0.2,0.3,0.2,0.5c0,0.2-0.1,0.4-0.2,0.5C218.6,44.3,218.4,44.4,218.2,44.4z M217.6,50.5v-5.3h1.2
			v5.3H217.6z"/>
		<path class="st0" d="M222.7,50.7c-0.8,0-1.5-0.3-2-0.8c-0.5-0.5-0.8-1.2-0.8-1.9c0-0.8,0.3-1.4,0.8-2c0.5-0.5,1.2-0.8,2-0.8
			c0.8,0,1.5,0.3,2,0.8c0.5,0.5,0.8,1.2,0.8,2c0,0.8-0.3,1.4-0.8,1.9S223.5,50.7,222.7,50.7z M221.2,47.9c0,0.5,0.1,0.9,0.4,1.2
			c0.3,0.3,0.7,0.5,1.1,0.5c0.4,0,0.8-0.2,1.1-0.5c0.3-0.3,0.4-0.7,0.4-1.2c0-0.5-0.1-0.9-0.4-1.2c-0.3-0.3-0.7-0.5-1.1-0.5
			c-0.4,0-0.8,0.2-1.1,0.5C221.3,47,221.2,47.4,221.2,47.9z"/>
		<path class="st0" d="M227.8,45.3V46c0.1-0.2,0.3-0.4,0.6-0.6s0.6-0.2,1-0.2c0.6,0,1.1,0.2,1.4,0.6c0.3,0.4,0.5,0.9,0.5,1.5v3.3
			h-1.2v-3.2c0-0.4-0.1-0.7-0.3-0.9c-0.2-0.2-0.4-0.3-0.8-0.3c-0.4,0-0.7,0.1-0.9,0.3c-0.2,0.2-0.3,0.5-0.3,1v3.1h-1.2v-5.3H227.8z"
			/>
		<path class="st0" d="M234.7,50.7c-0.7,0-1.3-0.2-1.6-0.5c-0.4-0.3-0.6-0.8-0.6-1.3h1.2c0,0.2,0.1,0.4,0.3,0.6
			c0.2,0.1,0.5,0.2,0.8,0.2c0.3,0,0.6-0.1,0.7-0.2s0.3-0.3,0.3-0.4c0-0.2-0.1-0.4-0.3-0.5c-0.2-0.1-0.5-0.2-0.8-0.2
			c-0.3-0.1-0.6-0.1-0.9-0.2c-0.3-0.1-0.6-0.2-0.8-0.4c-0.2-0.2-0.3-0.5-0.3-0.9c0-0.5,0.2-0.9,0.6-1.2c0.4-0.3,0.9-0.5,1.5-0.5
			c0.4,0,0.7,0.1,0.9,0.2c0.3,0.1,0.5,0.3,0.6,0.4c0.2,0.2,0.3,0.4,0.3,0.6c0.1,0.2,0.1,0.4,0.1,0.6h-1.2c0-0.2-0.1-0.4-0.3-0.5
			c-0.2-0.1-0.4-0.2-0.7-0.2c-0.3,0-0.5,0.1-0.7,0.2c-0.2,0.1-0.2,0.3-0.2,0.4c0,0.2,0.1,0.3,0.3,0.4c0.2,0.1,0.5,0.2,0.8,0.2
			c0.3,0.1,0.6,0.1,0.9,0.2c0.3,0.1,0.6,0.2,0.8,0.5c0.2,0.2,0.3,0.6,0.3,1c0,0.5-0.2,0.9-0.6,1.2C235.9,50.5,235.4,50.7,234.7,50.7
			z"/>
	</g>
</g>
</svg>
